<svg xmlns="http://www.w3.org/2000/svg" viewBox="0 0 1000.88 1000.88"><rect width="1000.88" height="1000.88" fill="#8a05be"/><path d="M738.83,579.65c0,15.85-18.92,35.34-34.31,35.34h-14c0-97,0-205.79,0-225.1a4.35,4.35,0,0,1,4.31-4.39h39.66a4.4,4.4,0,0,1,4.34,4.43ZM674.19,649c0,10-4.91,26.85-37.8,26.85-63.74,0-102.87-49.94-102.87-85.76,0,0-.07-115.81-.07-200.19a4.34,4.34,0,0,1,4.32-4.39h39.71a4.39,4.39,0,0,1,4.34,4.42V576c0,30.74,24.33,55.68,54.33,55.68h38.07ZM737.5,368.81H691.81a17.88,17.88,0,0,0-17.62,18.07V615H636.12c-21,0-38-17.45-38-39V386.88a17.87,17.87,0,0,0-17.64-18.08H534.75a17.9,17.9,0,0,0-17.65,18.08c0,82.48.07,203.25.07,203.25,0,63.48,69.43,102.46,119.21,102.46,33.38,0,54.12-16.73,54.12-43.67v-17.2h14c24.59,0,50.61-26.76,50.61-52.07V386.88A17.84,17.84,0,0,0,737.5,368.8ZM467.47,611a4.34,4.34,0,0,1-4.32,4.39H423.44a4.39,4.39,0,0,1-4.34-4.42V424.84c0-30.74-24.34-55.68-54.33-55.68H326.71V351.85c0-10,4.91-26.85,37.8-26.85,63.74,0,102.88,49.94,102.88,85.76,0,0,.07,116.37.07,200.19Zm-201.08,4.42a4.4,4.4,0,0,1-4.32-4.43V421.25c0-15.85,18.91-35.37,34.29-35.37h14c0,138.94,0,210,0,225a4.39,4.39,0,0,1-4.33,4.43H266.39Zm217.3-204.61c0-63.49-69.41-102.47-119.18-102.47-33.39,0-54.13,16.73-54.13,43.67v17.2h-14c-24.6,0-50.62,26.76-50.62,52.07V614a17.86,17.86,0,0,0,17.63,18.07h45.68c.28,0,.52-.07.81-.07a17.86,17.86,0,0,0,16.81-18V385.87h38.08c21,0,38,17.45,38,39V614a17.86,17.86,0,0,0,17.63,18.07h45.72A17.84,17.84,0,0,0,483.75,614c0-84-.05-203.25-.05-203.25Z" fill="#fff"/></svg>