<?xml version="1.0" standalone="no"?>
<!DOCTYPE svg PUBLIC "-//W3C//DTD SVG 20010904//EN"
 "http://www.w3.org/TR/2001/REC-SVG-20010904/DTD/svg10.dtd">
<svg version="1.0" xmlns="http://www.w3.org/2000/svg"
 width="361.000000pt" height="361.000000pt" viewBox="0 0 361.000000 361.000000"
 preserveAspectRatio="xMidYMid meet">

<g transform="translate(0.000000,361.000000) scale(0.100000,-0.100000)"
fill="#000000" stroke="none">
<path d="M203 3519 c-24 -11 -56 -36 -73 -55 -64 -73 -61 18 -58 -1695 3
-1472 4 -1556 21 -1590 24 -47 68 -92 115 -115 35 -18 100 -19 1587 -22 1109
-2 1565 0 1602 8 36 8 65 23 96 51 84 73 78 -74 75 1710 l-3 1585 -28 42 c-15
23 -46 54 -69 69 l-42 28 -1590 3 -1591 2 -42 -21z m3214 -70 c30 -14 50 -33
63 -60 20 -37 20 -67 20 -1596 0 -1463 -1 -1560 -18 -1593 -9 -19 -32 -45 -51
-57 l-34 -23 -1571 0 c-1550 0 -1571 0 -1604 20 -18 11 -41 34 -52 52 -20 33
-20 50 -18 1608 l3 1575 22 31 c49 68 -78 64 1642 64 l1555 0 43 -21z"/>
<path d="M300 3080 l0 -240 235 0 235 0 0 240 0 240 -235 0 -235 0 0 -240z
m410 0 l0 -170 -170 0 -170 0 0 170 0 170 170 0 170 0 0 -170z"/>
<path d="M440 3080 l0 -100 100 0 100 0 0 100 0 100 -100 0 -100 0 0 -100z"/>
<path d="M910 3286 l0 -35 68 -3 67 -3 2 -35 c1 -19 2 -64 2 -100 l1 -65 65 1
65 2 0 -69 0 -69 -35 0 c-33 0 -35 2 -35 35 l0 35 -65 0 -65 0 0 -70 0 -70
-35 0 c-33 0 -35 2 -35 35 0 33 -2 35 -35 35 l-35 0 0 -69 0 -69 -97 0 c-185
0 -173 2 -173 -32 0 -28 -3 -30 -35 -30 -32 0 -35 3 -35 29 0 34 -15 38 -127
33 l-73 -4 0 -29 c0 -27 3 -29 35 -29 33 0 35 -2 35 -35 0 -33 2 -35 34 -35
32 0 35 3 38 33 2 27 8 33 30 35 26 3 28 1 28 -32 0 -34 2 -36 35 -36 33 0 35
2 35 35 l0 35 100 0 100 0 0 -35 0 -35 -65 0 -65 0 0 -35 0 -35 -99 0 -100 0
-3 -32 -3 -33 -67 -3 -68 -3 0 -134 0 -135 36 0 c34 0 35 -1 32 -32 -3 -29 -7
-33 -35 -36 l-33 -3 0 -100 0 -99 35 0 c33 0 35 -2 35 -35 0 -33 -2 -35 -35
-35 -32 0 -35 -2 -35 -30 0 -28 3 -30 35 -30 l35 0 0 -135 0 -135 -35 0 c-33
0 -35 -2 -35 -35 0 -33 2 -35 35 -35 33 0 35 -2 35 -35 0 -33 -2 -35 -35 -35
l-36 0 3 -67 3 -68 30 0 c27 0 30 4 33 33 l3 32 65 0 64 0 0 35 c0 32 -2 35
-30 35 -28 0 -30 3 -30 35 0 32 2 35 29 35 26 0 30 4 33 33 3 28 7 32 36 35
31 3 32 2 32 -32 0 -34 2 -36 35 -36 33 0 35 2 35 35 0 33 -2 35 -35 35 -32 0
-35 2 -35 30 l0 30 100 0 100 0 0 -30 c0 -27 -3 -30 -30 -30 -28 0 -30 -3 -30
-35 l0 -35 100 0 100 0 0 65 0 65 35 0 35 0 0 70 0 70 -36 0 c-34 0 -35 1 -32
33 3 28 7 32 36 35 28 3 32 7 32 32 0 25 -4 29 -32 32 -29 3 -33 7 -36 36 l-3
32 70 0 71 0 0 -35 0 -34 63 2 62 2 3 33 3 32 -65 0 -66 0 0 35 c0 32 2 35 30
35 28 0 30 3 30 35 0 32 -2 35 -30 35 -28 0 -30 -3 -30 -35 0 -33 -2 -35 -35
-35 -33 0 -35 2 -35 35 0 33 -2 35 -35 35 l-35 0 0 65 0 65 99 0 100 0 3 -32
c3 -29 6 -33 33 -33 27 0 30 4 33 33 3 29 6 32 38 32 32 0 34 -2 34 -36 0 -31
-3 -35 -22 -34 -47 4 -48 2 -48 -65 l0 -65 70 0 70 0 0 35 c0 32 2 35 29 35
26 0 30 -4 33 -32 3 -29 7 -33 36 -36 29 -3 32 -6 32 -38 0 -32 2 -34 35 -34
l35 0 0 -65 0 -65 35 0 c33 0 35 -2 35 -35 l0 -35 -70 0 -70 0 0 35 c0 33 -2
35 -36 35 -34 0 -35 1 -33 33 1 17 1 47 0 65 l-1 32 -65 0 -65 0 0 -65 0 -65
-35 0 c-33 0 -35 -2 -35 -35 0 -33 -2 -35 -35 -35 -33 0 -35 2 -35 35 0 32 -2
35 -30 35 l-30 0 0 -135 0 -135 -35 0 -35 0 0 -140 0 -140 65 0 64 0 3 103 3
102 33 3 c31 3 32 2 32 -32 0 -34 2 -36 35 -36 l35 0 0 -100 0 -100 100 0 100
0 0 -35 c0 -33 2 -35 35 -35 33 0 35 -2 35 -35 0 -33 -2 -35 -35 -35 l-35 0 0
-65 0 -65 70 0 70 0 0 -35 c0 -33 -2 -35 -35 -35 l-35 0 0 -70 0 -70 35 0 c32
0 35 -2 35 -30 l0 -30 -70 0 -70 0 0 29 c0 26 -4 30 -32 33 l-33 3 -2 165 c-1
91 -2 182 -2 203 l-1 37 -65 0 -65 0 0 -35 c0 -33 2 -35 36 -35 34 0 35 -1 32
-32 -3 -30 -6 -33 -35 -33 -31 0 -33 -2 -33 -32 l0 -33 -70 0 -70 0 0 -35 0
-35 -65 0 -65 0 0 -35 0 -35 99 0 100 0 3 33 c3 28 7 32 36 35 l32 3 0 -70 0
-71 -35 0 -35 0 0 -65 0 -65 -35 0 c-33 0 -35 2 -35 35 l0 35 -65 0 -65 0 0
30 c0 28 -3 30 -35 30 l-35 0 0 70 0 70 -35 0 -35 0 0 -170 0 -170 70 0 70 0
0 36 c0 34 1 35 33 32 l32 -3 0 -65 0 -65 -32 -3 c-28 -3 -32 -7 -35 -35 -3
-28 -7 -32 -33 -32 -27 0 -30 4 -33 33 -3 29 -6 32 -38 32 l-34 0 0 -100 0
-100 70 0 70 0 0 65 0 65 35 0 c32 0 35 -2 35 -30 0 -27 3 -30 30 -30 28 0 30
-3 30 -35 l0 -35 135 0 135 0 0 35 c0 32 -2 35 -30 35 l-30 0 0 65 0 65 30 0
c33 0 30 -13 33 135 l2 70 33 3 c31 3 32 2 32 -32 0 -34 2 -36 35 -36 l35 0 0
-70 0 -70 -35 0 -35 0 0 -65 0 -65 35 0 c33 0 35 -2 35 -35 0 -33 2 -35 35
-35 33 0 35 2 35 35 0 33 -2 35 -35 35 -32 0 -35 2 -35 30 0 28 3 30 35 30 33
0 35 2 35 35 0 32 2 35 30 35 l30 0 0 -100 0 -100 34 0 c32 0 35 3 38 33 3 28
7 32 36 35 31 3 32 2 32 -32 0 -34 2 -36 35 -36 33 0 35 2 35 35 0 33 -2 35
-35 35 l-36 0 3 98 3 97 65 0 65 0 0 -30 c0 -27 -4 -30 -32 -33 -30 -3 -33 -6
-33 -38 0 -32 2 -34 36 -34 35 0 36 -1 33 -37 -1 -21 -1 -50 0 -65 l1 -28 165
0 165 0 0 35 c0 33 2 35 35 35 33 0 35 -2 35 -35 l0 -35 99 0 99 0 6 35 c6 31
11 35 36 35 27 0 30 3 30 30 0 19 -5 30 -15 31 -8 1 -19 3 -25 4 -5 1 -15 3
-20 4 -7 1 -10 25 -8 64 3 62 3 62 35 65 l32 3 3 67 3 67 33 3 c31 3 32 2 32
-32 0 -34 2 -36 35 -36 l35 0 0 -70 0 -70 -70 0 -70 0 0 -35 c0 -33 2 -35 35
-35 l35 0 0 -65 0 -65 35 0 35 0 0 64 0 65 33 3 32 3 3 68 3 67 100 0 100 0
-3 -68 -3 -67 -30 0 c-27 0 -30 4 -33 32 -3 30 -6 33 -38 33 -34 0 -35 -1 -32
-33 3 -28 7 -32 36 -35 28 -3 32 -7 32 -33 0 -27 -3 -29 -35 -29 -33 0 -35 -2
-35 -35 l0 -35 105 0 105 0 0 35 c0 32 2 35 30 35 l30 0 0 170 0 170 -30 0
c-27 0 -30 3 -30 30 0 27 3 30 30 30 l30 0 0 70 0 70 -65 0 -65 0 0 35 0 35
100 0 100 0 0 -70 0 -70 35 0 35 0 0 -65 0 -65 35 0 35 0 0 100 0 100 -35 0
c-33 0 -35 2 -35 35 0 33 2 35 35 35 l35 0 0 65 0 65 -35 0 -35 0 0 -65 0 -65
-34 0 c-32 0 -35 3 -38 32 -3 29 -7 32 -33 33 l-30 0 0 100 0 100 33 3 c28 3
32 7 32 32 0 25 -4 29 -32 32 -29 3 -33 7 -36 36 -3 28 -7 32 -33 32 l-29 0 0
-100 0 -100 -35 0 -35 0 0 135 0 135 -36 0 c-34 0 -35 1 -32 33 3 28 7 32 36
35 29 3 32 6 32 38 0 32 -2 34 -35 34 -32 0 -35 2 -35 30 l0 30 100 0 100 0 0
-65 0 -65 35 0 c33 0 35 -2 35 -35 0 -33 2 -35 35 -35 l35 0 0 -100 0 -100 35
0 35 0 0 100 0 100 -35 0 c-33 0 -35 2 -35 35 0 33 2 35 35 35 l35 0 0 235 0
235 -35 0 c-33 0 -35 2 -35 35 0 33 2 35 35 35 l35 0 0 100 0 100 -36 0 c-34
0 -35 1 -32 33 3 28 7 32 36 35 29 3 32 6 32 38 l0 34 -70 0 -69 0 -3 -102 -3
-103 -30 0 -30 0 -3 68 -3 67 -64 0 -65 0 0 35 0 35 65 0 65 0 0 35 c0 32 -2
35 -30 35 l-30 0 0 65 0 65 30 0 30 0 0 70 0 70 35 0 c32 0 35 2 35 30 0 28
-3 30 -35 30 -32 0 -35 -2 -35 -30 0 -27 -3 -30 -30 -30 -28 0 -30 -3 -30 -35
0 -33 -2 -35 -35 -35 -33 0 -35 2 -35 35 0 33 -2 35 -35 35 -32 0 -35 2 -35
30 0 33 3 33 -132 31 l-68 0 0 34 c0 31 3 34 33 37 28 3 32 7 35 36 3 31 2 32
-32 32 -34 0 -36 -2 -36 -35 0 -33 -2 -35 -35 -35 -33 0 -35 2 -35 35 0 33 -2
35 -36 35 -34 0 -35 1 -32 33 l3 32 103 3 102 3 0 64 0 65 -35 0 -35 0 0 70 0
70 36 0 c34 0 35 1 32 33 -3 28 -7 32 -35 35 -32 3 -33 2 -33 -32 0 -34 -2
-36 -35 -36 l-35 0 0 -99 c0 -56 -4 -101 -10 -103 -5 -1 -50 -2 -100 0 l-90 3
0 100 0 99 30 0 c30 0 37 -13 31 -57 -1 -8 11 -13 34 -13 33 0 35 2 35 35 0
33 -2 35 -35 35 -33 0 -35 2 -35 35 0 32 -2 35 -30 35 -28 0 -30 -3 -30 -35 0
-33 -2 -35 -35 -35 -33 0 -35 2 -35 36 0 34 -1 35 -32 32 l-33 -3 -3 -102 -3
-103 -34 0 c-32 0 -35 -2 -35 -30 0 -29 3 -32 45 -34 18 -1 20 -9 23 -103 l3
-103 -36 0 -35 0 0 70 0 70 -30 0 -30 0 0 135 0 135 -34 0 c-32 0 -35 3 -38
33 -3 28 -6 32 -33 32 l-30 0 -3 -67 -3 -68 -64 0 -64 0 -3 68 -3 67 -67 3
-68 3 0 -36 c0 -33 -2 -35 -35 -35 -33 0 -35 2 -35 36 0 34 -1 35 -32 32 -29
-3 -33 -7 -36 -35 -3 -32 -2 -33 32 -33 34 0 36 -2 36 -35 l0 -35 -65 0 -65 0
0 -35 c0 -32 2 -35 30 -35 l30 0 0 -65 0 -65 -30 0 c-28 0 -30 -3 -30 -35 0
-33 -2 -35 -35 -35 l-35 0 0 205 0 206 -67 -3 -68 -3 -3 -32 c-3 -32 -2 -33
32 -33 34 0 36 -2 36 -35 0 -33 -2 -35 -35 -35 l-35 0 0 -100 0 -100 -30 0
c-28 0 -30 -3 -30 -35 0 -33 -2 -35 -35 -35 l-35 0 0 99 0 100 33 3 c28 3 32
7 35 36 3 31 2 32 -32 32 l-35 0 -3 68 -3 67 -167 3 -168 2 0 -34z m950 -71
c0 -33 2 -35 36 -35 34 0 35 -1 32 -32 -3 -29 -7 -33 -35 -36 -32 -3 -33 -2
-33 32 0 34 -2 36 -35 36 l-35 0 0 -64 c0 -68 -6 -76 -47 -68 -21 4 -23 10
-23 68 l0 64 35 0 c33 0 35 2 35 35 0 33 2 35 35 35 33 0 35 -2 35 -35z m-610
-70 l0 -35 -70 0 -70 0 0 28 c0 16 3 32 7 35 3 4 35 7 70 7 l63 0 0 -35z m740
-65 c0 -30 4 -32 48 -33 21 0 22 -3 22 -103 l0 -104 35 0 34 0 3 68 3 67 33 3
32 3 0 -135 0 -136 30 0 30 0 0 -105 0 -105 -30 0 c-28 0 -30 3 -30 35 0 33
-2 35 -35 35 -33 0 -35 -2 -35 -35 0 -33 -2 -35 -35 -35 l-35 0 0 134 0 135
-32 3 -33 3 -3 138 -3 137 -29 0 c-27 0 -30 3 -30 30 0 27 3 30 30 30 27 0 30
-3 30 -30z m408 -2 c-2 -24 -8 -33 -20 -32 -10 1 -25 2 -33 3 -10 1 -15 12
-15 31 0 28 3 30 36 30 34 0 35 -1 32 -32z m70 -66 c3 -28 7 -32 33 -32 27 0
29 -3 29 -35 0 -33 2 -35 35 -35 l35 0 0 -70 0 -70 70 0 70 0 0 -30 c0 -27 3
-30 30 -30 30 0 42 -20 38 -60 0 -8 0 -30 0 -47 2 -29 5 -33 32 -33 29 0 29 0
32 68 l3 67 33 3 c31 3 32 2 32 -32 0 -34 2 -36 35 -36 33 0 35 -2 35 -35 l0
-35 -71 0 -70 0 3 -32 c3 -29 7 -33 36 -36 28 -3 32 -7 32 -32 0 -25 4 -29 33
-32 28 -3 32 -7 35 -35 3 -32 2 -33 -32 -33 -34 0 -36 -2 -36 -35 0 -33 2 -35
35 -35 l36 0 -3 -67 -3 -68 -30 0 c-27 0 -30 4 -33 33 -3 29 -6 32 -38 32 -32
0 -34 -2 -34 -35 0 -33 2 -35 35 -35 l35 0 0 -100 0 -100 -35 0 -35 0 0 99 c0
88 -2 99 -19 104 -34 9 -44 -8 -44 -72 l1 -61 -34 0 c-32 0 -34 -2 -34 -35 0
-33 -2 -35 -35 -35 -33 0 -35 -2 -35 -35 0 -33 2 -35 35 -35 32 0 35 -2 35
-30 0 -28 -3 -30 -35 -30 -33 0 -35 -2 -35 -35 0 -33 -2 -35 -35 -35 -33 0
-35 -2 -35 -35 0 -33 2 -35 35 -35 l35 0 0 -65 0 -65 35 0 c33 0 35 -2 35 -34
0 -32 3 -35 33 -38 17 -2 33 -9 33 -15 1 -7 2 -22 3 -33 1 -15 8 -20 30 -20
26 0 30 -4 33 -32 3 -29 7 -33 36 -36 29 -3 32 -6 32 -38 0 -32 -2 -34 -35
-34 l-35 0 0 -100 0 -100 34 0 c32 0 35 3 38 33 3 28 7 32 36 35 31 3 32 2 32
-32 0 -35 1 -36 36 -36 34 0 35 -1 32 -32 -3 -30 -6 -33 -35 -33 -31 0 -33 -2
-33 -32 0 -31 -2 -33 -35 -33 -33 0 -35 2 -35 33 l0 32 -65 -1 -65 -1 0 133 0
134 -35 0 -35 0 0 -136 c0 -134 0 -135 23 -134 41 4 47 0 47 -30 l0 -30 -70 0
-70 0 0 -35 c0 -33 2 -35 35 -35 33 0 35 -2 35 -35 0 -33 -2 -35 -35 -35 -33
0 -35 -2 -35 -35 l0 -35 -135 0 -135 0 0 -64 0 -65 33 -3 c28 -3 32 -7 35 -36
3 -31 2 -32 -32 -32 -34 0 -36 -2 -36 -35 0 -33 2 -35 36 -35 34 0 35 -1 32
-32 -3 -29 -7 -33 -35 -36 -29 -3 -33 -7 -33 -33 0 -27 -3 -29 -35 -29 l-36 0
3 97 3 98 33 3 c29 3 32 6 32 38 l0 34 -70 0 -70 0 0 65 0 65 -30 0 -30 0 0
-100 0 -100 30 0 c28 0 30 -3 30 -35 l0 -35 -65 0 -65 0 0 -35 0 -35 65 0 65
0 0 -30 0 -30 -135 0 -135 0 0 30 c0 28 3 30 35 30 l34 0 3 68 3 67 33 3 c29
3 32 6 32 38 l0 34 -71 0 -70 0 3 33 c3 28 7 32 36 35 l32 3 0 65 0 64 -35 0
c-33 0 -35 2 -35 35 0 32 -2 35 -30 35 l-30 0 0 64 0 65 -32 3 -33 3 -3 68 -3
67 -34 0 -35 0 0 -65 c0 -45 -4 -65 -12 -66 -7 -1 -33 -3 -58 -4 -25 -2 -51
-3 -57 -4 -7 0 -13 -14 -13 -31 0 -28 3 -30 35 -30 33 0 35 -2 35 -35 0 -33
-2 -35 -35 -35 l-35 0 0 -70 0 -70 -30 0 -30 0 0 70 0 70 30 0 c28 0 30 3 30
35 0 32 -2 35 -30 35 l-30 0 0 100 0 100 30 0 c28 0 30 3 30 35 l0 35 -100 0
-100 0 0 29 c0 26 -4 30 -32 33 l-33 3 -2 65 c-1 36 -2 82 -2 103 -1 34 -3 37
-31 37 -28 0 -30 -3 -30 -35 0 -33 -2 -35 -35 -35 -33 0 -35 2 -35 35 0 33 -2
35 -35 35 -33 0 -35 2 -35 35 0 33 -2 35 -35 35 -32 0 -35 2 -35 30 0 28 3 30
35 30 32 0 35 -2 35 -30 0 -28 3 -30 35 -30 l35 0 0 65 0 65 35 0 35 0 0 -65
0 -65 30 0 29 0 3 98 3 97 33 3 c31 3 32 2 32 -32 0 -34 2 -36 35 -36 33 0 35
-2 35 -35 0 -33 -2 -35 -35 -35 -32 0 -35 -2 -35 -30 0 -28 -3 -30 -35 -30
-33 0 -35 -2 -35 -35 0 -33 2 -35 35 -35 33 0 35 -2 35 -35 0 -33 2 -35 35
-35 l35 0 0 -71 0 -70 33 3 32 3 3 68 3 67 99 0 100 0 0 35 0 35 -100 0 -100
0 0 65 0 65 100 0 100 0 0 -65 0 -65 35 0 c33 0 35 -2 35 -35 0 -33 -2 -35
-35 -35 l-35 0 0 -100 0 -100 35 0 c33 0 35 -2 35 -35 0 -33 2 -35 35 -35 l35
0 0 64 0 65 -32 3 c-29 3 -33 7 -36 36 l-3 32 65 0 66 0 0 35 c0 32 -2 35 -30
35 l-30 0 0 100 0 100 30 0 30 0 0 -100 0 -100 35 0 c33 0 35 -2 35 -35 l0
-35 234 0 235 0 3 -32 c3 -29 7 -33 36 -36 l32 -3 0 105 0 106 -35 0 c-33 0
-35 2 -35 35 0 32 -2 35 -30 35 -27 0 -30 3 -30 30 0 27 3 30 30 30 28 0 30 3
30 35 0 32 -2 35 -30 35 -28 0 -30 3 -30 35 0 33 -2 35 -35 35 -33 0 -35 -2
-35 -35 0 -33 -2 -35 -35 -35 -33 0 -35 -2 -35 -35 0 -33 2 -35 35 -35 32 0
35 -2 35 -29 0 -26 4 -30 33 -33 l32 -3 3 -67 3 -68 -71 0 -70 0 0 35 c0 33
-2 35 -35 35 -33 0 -35 -2 -35 -35 l0 -35 -65 0 -65 0 0 35 c0 33 -2 35 -35
35 l-35 0 0 65 0 65 35 0 c33 0 35 2 35 35 l0 35 -71 0 -70 0 3 33 c3 28 7 32
36 35 l32 3 0 65 c0 44 4 64 13 65 6 0 67 0 135 -1 l122 -1 0 135 0 136 100 0
100 0 0 35 0 35 -101 0 -100 0 3 33 3 32 95 3 c52 2 97 7 100 11 3 5 4 66 2
135 l-3 126 -30 0 -29 0 0 -65 0 -65 -35 0 c-33 0 -35 -2 -35 -35 l0 -35 -70
0 -70 0 0 -35 c0 -32 -2 -35 -30 -35 l-30 0 0 -70 0 -70 30 0 30 0 0 -100 0
-100 -30 0 c-28 0 -30 3 -30 35 0 33 -2 35 -35 35 -33 0 -35 -2 -35 -35 0 -33
-2 -35 -35 -35 -33 0 -35 -2 -35 -36 0 -34 -1 -35 -32 -32 -29 3 -33 7 -36 36
-3 28 -7 32 -33 32 -27 0 -29 3 -29 35 0 33 -2 35 -35 35 -33 0 -35 -2 -35
-35 0 -33 -2 -35 -35 -35 -33 0 -35 2 -35 35 0 33 -2 35 -35 35 -33 0 -35 -2
-35 -35 0 -33 -2 -35 -35 -35 l-35 0 0 240 0 240 -30 0 c-27 0 -30 3 -30 30 0
28 -3 30 -35 30 l-35 0 0 -170 0 -170 -35 0 c-32 0 -35 -2 -35 -30 0 -29 0
-29 68 -32 l67 -3 3 -67 3 -68 -36 0 c-33 0 -35 2 -35 35 0 33 -2 35 -35 35
-33 0 -35 2 -35 35 0 33 -2 35 -35 35 l-35 0 0 100 0 100 -30 0 c-28 0 -30 3
-30 35 0 32 2 35 30 35 28 0 30 3 30 35 0 32 -2 35 -30 35 -27 0 -30 3 -30 30
l0 30 65 0 65 0 0 70 0 70 -65 0 -65 0 0 65 0 65 -35 0 -35 0 0 -100 0 -100
36 0 c34 0 35 -1 32 -32 -3 -29 -7 -33 -35 -36 l-33 -3 0 -65 0 -64 -70 0 -70
0 0 35 c0 32 -2 35 -30 35 -28 0 -30 -3 -31 -37 -1 -21 0 -53 1 -70 1 -31 0
-33 -34 -33 l-36 0 0 99 0 100 32 3 c29 3 33 7 36 36 l3 32 65 0 64 0 0 100 0
100 -35 0 c-32 0 -35 -2 -35 -30 0 -27 -3 -30 -30 -30 -28 0 -30 -3 -30 -35 0
-33 -2 -35 -35 -35 -33 0 -35 2 -35 35 0 33 -2 35 -35 35 l-35 0 0 -170 0
-170 -35 0 c-33 0 -35 2 -35 35 0 33 -2 35 -35 35 -33 0 -35 -2 -35 -35 l0
-35 -65 0 -65 0 0 65 0 65 35 0 c33 0 35 2 35 35 l0 35 65 0 64 0 3 68 3 67
33 3 c28 3 32 7 32 32 0 25 4 29 33 32 28 3 32 7 35 36 3 29 6 32 38 32 32 0
34 2 34 35 0 32 2 35 30 35 28 0 30 -3 30 -35 0 -33 2 -35 35 -35 33 0 35 2
35 35 0 33 2 35 35 35 33 0 35 -2 35 -35 0 -33 2 -35 35 -35 33 0 35 2 35 35
0 32 2 35 30 35 l30 0 0 -100 0 -100 35 0 c32 0 35 2 35 30 0 28 3 30 35 30
33 0 35 2 35 35 0 33 -2 35 -36 35 -34 0 -35 1 -32 33 3 28 7 32 36 35 31 3
32 2 32 -32 0 -34 2 -36 35 -36 33 0 35 2 35 35 0 32 2 35 30 35 28 0 30 -3
30 -35 0 -32 -2 -35 -29 -35 -26 0 -30 -4 -33 -32 -3 -29 -7 -33 -35 -36 l-33
-3 0 -64 0 -64 33 -3 32 -3 3 -67 c3 -68 3 -68 32 -68 l29 0 3 103 3 102 129
3 c97 2 131 -1 138 -10 4 -7 8 -39 8 -70 0 -58 0 -58 30 -58 l30 0 0 -65 0
-65 -30 0 c-28 0 -30 -3 -31 -37 -1 -21 -1 -53 0 -70 2 -32 1 -33 -33 -33 -34
0 -36 -2 -36 -34 0 -32 3 -35 33 -38 l32 -3 2 -65 c1 -36 2 -80 2 -97 1 -30 4
-33 31 -33 28 0 30 -3 30 -35 0 -33 2 -35 35 -35 l35 0 0 99 0 100 33 3 32 3
3 68 3 67 -36 0 -36 0 3 68 3 67 30 0 30 0 3 -67 3 -68 34 0 34 0 3 68 c3 76
-10 69 131 71 l67 1 0 65 0 65 -35 0 -36 0 3 68 3 67 33 3 c28 3 32 7 32 32 0
25 -4 29 -32 32 -29 3 -33 7 -36 36 -3 31 -2 32 32 32 32 0 35 3 38 33 3 28 7
32 36 35 29 3 32 6 32 38 0 32 -2 34 -35 34 -33 0 -35 2 -35 35 0 33 2 35 33
32 28 -2 32 -6 35 -35z m-543 -137 l0 -100 -100 0 -100 0 -3 89 c-2 49 0 96 2
103 4 11 28 13 103 11 l98 -3 0 -100z m-275 -135 c0 -27 -3 -30 -30 -30 -27 0
-30 3 -30 30 0 27 3 30 30 30 27 0 30 -3 30 -30z m-1150 -335 c0 -33 2 -35 35
-35 l35 0 0 -70 0 -70 34 0 c32 0 35 3 38 33 l3 32 98 3 97 3 0 -36 0 -35 -65
0 -65 0 0 -35 0 -35 65 0 65 0 0 -65 0 -65 -35 0 c-33 0 -35 -2 -35 -35 l0
-35 -66 0 -65 0 3 33 c3 32 3 32 66 35 l62 3 0 34 c0 32 -2 35 -30 35 -26 0
-30 3 -30 29 0 22 -5 30 -23 33 -35 7 -47 -1 -47 -33 0 -26 -3 -29 -35 -29
l-35 0 0 -70 0 -70 -36 0 c-34 0 -35 -1 -32 -32 3 -30 6 -33 36 -33 l32 0 0
-102 0 -103 -35 0 -35 0 0 -65 0 -65 -30 0 -30 0 0 65 0 65 30 0 30 0 0 70 0
70 -30 0 -30 0 0 65 0 65 -35 0 c-33 0 -35 2 -35 35 0 33 2 35 34 35 32 0 35
3 38 33 2 27 8 33 31 35 23 3 27 8 27 33 0 27 3 29 35 29 33 0 35 2 35 35 0
33 -2 35 -34 35 -32 0 -35 -3 -38 -32 -2 -28 -7 -33 -28 -33 -21 0 -26 5 -28
33 -3 30 -1 32 27 32 l31 0 0 70 0 70 -30 0 c-28 0 -30 -3 -30 -35 0 -33 -2
-35 -36 -35 -34 0 -35 1 -32 33 3 28 7 32 36 35 28 3 32 7 32 31 0 34 6 41 37
41 20 0 23 -5 23 -35z m1558 -207 c-3 -29 -6 -33 -33 -33 -21 0 -31 5 -33 18
-6 32 6 47 38 47 29 0 31 -2 28 -32z m-738 -68 c0 -28 -3 -30 -35 -30 -32 0
-35 2 -35 30 0 28 3 30 35 30 32 0 35 -2 35 -30z m1960 -35 l0 -65 -35 0 c-33
0 -35 -2 -35 -35 0 -33 2 -35 35 -35 l35 0 0 -100 0 -100 -35 0 c-33 0 -35 -2
-35 -35 0 -33 2 -35 35 -35 l35 0 0 -100 0 -100 -35 0 -35 0 0 65 0 65 -35 0
-35 0 0 70 0 70 -31 0 c-28 0 -30 2 -27 33 2 27 8 33 31 35 22 3 27 8 27 31 0
24 -5 30 -30 35 -30 5 -30 6 -30 71 l0 65 65 0 65 0 0 65 0 65 35 0 35 0 0
-65z m-2440 -306 l0 -99 -100 0 -100 0 0 99 c0 56 4 101 10 103 5 2 50 2 100
0 l90 -3 0 -100z m1078 96 c9 -3 12 -29 10 -97 l-3 -93 -102 -3 -103 -3 0 100
c0 87 2 100 18 103 22 5 163 -1 180 -7z m1092 -96 l0 -99 -100 0 -100 0 0 100
0 99 88 3 c48 2 93 1 100 -1 8 -2 12 -31 12 -102z m-1360 71 c0 -27 -3 -30
-30 -30 -27 0 -30 3 -30 30 0 27 3 30 30 30 27 0 30 -3 30 -30z m-332 -67 c3
-32 2 -33 -32 -33 -35 0 -36 1 -36 36 0 34 1 35 33 32 28 -3 32 -7 35 -35z
m1552 -203 c0 -27 -3 -30 -30 -30 -27 0 -30 3 -30 30 0 27 3 30 30 30 27 0 30
-3 30 -30z m-2432 -67 c3 -32 2 -33 -32 -33 -35 0 -36 1 -36 36 0 34 1 35 33
32 28 -3 32 -7 35 -35z m880 -610 c3 -32 2 -33 -32 -33 -35 0 -36 1 -36 36 0
34 1 35 33 32 28 -3 32 -7 35 -35z m610 -205 l3 -98 -106 0 -105 0 0 93 c0 52
3 97 7 101 4 4 50 5 103 4 l95 -3 3 -97z m1082 2 l0 -100 -100 0 -100 0 0 100
0 100 100 0 100 0 0 -100z m-1630 0 l0 -30 -65 0 -65 0 0 30 0 30 65 0 65 0 0
-30z m-400 -65 c0 -33 -2 -35 -35 -35 -32 0 -35 3 -35 28 0 36 6 42 42 42 25
0 28 -3 28 -35z m338 -107 l3 -68 -35 0 c-32 0 -35 -3 -38 -32 -3 -29 -7 -33
-35 -36 -29 -3 -33 -7 -33 -33 0 -27 -3 -29 -35 -29 -32 0 -35 2 -35 30 0 28
3 30 35 30 33 0 35 2 35 35 0 33 -2 35 -36 35 -34 0 -35 1 -32 33 3 28 7 32
36 35 31 3 32 2 32 -32 0 -34 2 -36 35 -36 l35 0 0 63 c0 72 4 79 40 75 24 -3
25 -7 28 -70z m332 37 c0 -32 -2 -35 -30 -35 -26 0 -30 4 -30 28 0 35 6 42 37
42 20 0 23 -5 23 -35z"/>
<path d="M2470 2810 l0 -100 -35 0 c-33 0 -35 -2 -35 -35 0 -33 2 -35 35 -35
33 0 35 2 35 35 l0 35 65 0 65 0 0 29 c0 26 -4 30 -32 33 -35 3 -34 0 -37 106
-1 29 -4 32 -31 32 l-30 0 0 -100z"/>
<path d="M1790 2605 c0 -33 -2 -35 -35 -35 -33 0 -35 -2 -35 -35 0 -33 -2 -35
-35 -35 -32 0 -35 -2 -35 -30 0 -28 3 -30 35 -30 33 0 35 -2 35 -35 0 -33 2
-35 35 -35 33 0 35 -2 35 -35 0 -33 -2 -35 -35 -35 l-35 0 0 -100 0 -100 35 0
c33 0 35 -2 35 -35 0 -33 2 -35 35 -35 33 0 35 2 35 35 0 33 -2 35 -35 35
l-35 0 0 100 0 100 35 0 c33 0 35 2 35 35 0 33 -2 35 -35 35 l-35 0 0 100 0
100 35 0 c33 0 35 2 35 35 0 33 -2 35 -35 35 -33 0 -35 -2 -35 -35z"/>
<path d="M2537 2633 c-4 -3 -7 -19 -7 -35 l0 -28 105 0 105 0 0 35 0 35 -98 0
c-54 0 -102 -3 -105 -7z"/>
<path d="M1180 2535 c0 -33 -2 -35 -35 -35 -32 0 -35 -2 -35 -30 0 -28 3 -30
35 -30 32 0 35 2 35 30 0 28 3 30 35 30 33 0 35 2 35 35 0 33 -2 35 -35 35
-33 0 -35 -2 -35 -35z"/>
<path d="M710 2470 c0 -27 3 -30 30 -30 27 0 30 3 30 30 0 27 -3 30 -30 30
-27 0 -30 -3 -30 -30z"/>
<path d="M2600 2470 c0 -28 3 -30 35 -30 l35 0 0 -105 0 -105 35 0 c33 0 35
-2 35 -36 0 -34 1 -35 33 -32 28 3 32 7 35 36 3 28 7 32 33 32 27 0 29 3 29
35 0 32 -2 35 -29 35 -26 0 -30 -4 -33 -32 -3 -29 -7 -33 -35 -36 l-33 -3 0
105 0 106 -35 0 c-32 0 -35 2 -35 30 0 28 -3 30 -35 30 -32 0 -35 -2 -35 -30z"/>
<path d="M1380 2335 c0 -33 2 -35 35 -35 33 0 35 2 35 35 0 33 -2 35 -35 35
-33 0 -35 -2 -35 -35z"/>
<path d="M2563 2163 c-29 -4 -33 -8 -33 -34 0 -27 3 -29 35 -29 33 0 35 2 35
35 0 19 -1 34 -2 33 -2 0 -18 -3 -35 -5z"/>
<path d="M2470 1895 l0 -135 65 0 65 0 0 35 c0 33 -2 35 -35 35 -28 0 -35 4
-35 19 0 27 26 50 50 44 17 -5 20 -1 20 31 0 34 1 36 35 36 33 0 35 2 35 35 0
33 -2 35 -35 35 -33 0 -35 -2 -35 -35 0 -33 -2 -35 -35 -35 -33 0 -35 2 -35
35 0 32 -2 35 -30 35 l-30 0 0 -135z"/>
<path d="M2130 1795 c0 -33 2 -35 35 -35 l35 0 0 -135 0 -135 30 0 c23 0 30 5
30 19 0 37 12 51 41 51 25 0 29 4 29 29 0 26 -4 30 -32 33 -37 3 -34 -7 -37
141 l-1 67 -65 0 -65 0 0 -35z"/>
<path d="M2330 1795 c0 -33 2 -35 35 -35 33 0 35 2 35 35 0 33 -2 35 -35 35
-33 0 -35 -2 -35 -35z"/>
<path d="M2600 1525 c0 -33 2 -35 35 -35 33 0 35 2 35 35 0 33 -2 35 -35 35
-33 0 -35 -2 -35 -35z"/>
<path d="M2740 1384 c0 -34 1 -35 33 -32 28 3 32 7 35 36 3 31 2 32 -32 32
-35 0 -36 -1 -36 -36z"/>
<path d="M1990 1250 l0 -100 -30 0 c-28 0 -30 -3 -30 -35 0 -32 2 -35 30 -35
l30 0 0 -100 0 -100 35 0 c33 0 35 -2 35 -35 0 -33 2 -35 35 -35 33 0 35 -2
35 -35 0 -33 2 -35 35 -35 33 0 35 2 35 35 0 32 2 35 30 35 28 0 30 -3 30 -35
0 -33 2 -35 35 -35 l35 0 0 70 0 70 35 0 c33 0 35 -2 35 -35 l0 -35 65 0 c57
0 65 2 65 19 0 37 12 51 41 51 26 0 29 -3 29 -35 0 -33 2 -35 35 -35 33 0 35
2 35 35 0 33 -2 35 -35 35 -33 0 -35 2 -35 35 0 33 2 35 35 35 32 0 35 2 35
30 0 17 -4 31 -10 31 -50 6 -55 3 -58 -29 l-3 -32 -65 0 -64 0 0 30 c0 27 3
30 30 30 33 0 33 0 30 88 l-1 52 35 0 c35 0 36 1 36 36 0 34 -1 35 -32 32 -29
-3 -33 -7 -36 -35 l-3 -33 -65 0 -64 0 0 65 0 65 -35 0 c-32 0 -35 -2 -35 -30
0 -28 -3 -30 -35 -30 -32 0 -35 2 -35 30 0 27 -3 30 -30 30 l-30 0 0 -100 0
-100 -35 0 -35 0 0 -100 0 -100 -35 0 -35 0 0 235 0 235 -35 0 -35 0 0 -100z
m410 -200 l0 -100 -35 0 c-33 0 -35 -2 -35 -35 l0 -35 -66 0 -65 0 3 33 c3 32
3 32 66 35 l62 3 0 93 c0 51 3 96 7 99 3 4 19 7 35 7 l28 0 0 -100z"/>
<path d="M1650 1250 c0 -28 3 -30 35 -30 33 0 35 -2 35 -35 0 -33 2 -35 35
-35 33 0 35 2 35 35 0 33 -2 35 -35 35 -32 0 -35 2 -35 30 0 28 -3 30 -35 30
-32 0 -35 -2 -35 -30z"/>
<path d="M1790 2875 c0 -33 2 -35 35 -35 33 0 35 2 35 35 0 33 -2 35 -35 35
-33 0 -35 -2 -35 -35z"/>
<path d="M3140 1795 c0 -33 2 -35 35 -35 33 0 35 2 35 35 0 33 -2 35 -35 35
-33 0 -35 -2 -35 -35z"/>
<path d="M710 1795 c0 -32 2 -35 30 -35 28 0 30 3 30 35 0 32 -2 35 -30 35
-28 0 -30 -3 -30 -35z"/>
<path d="M1790 1795 c0 -33 2 -35 35 -35 33 0 35 2 35 35 0 33 -2 35 -35 35
-33 0 -35 -2 -35 -35z"/>
<path d="M2877 1823 c-4 -3 -7 -19 -7 -35 0 -25 3 -28 35 -28 33 0 35 2 35 35
0 32 -3 35 -28 35 -16 0 -32 -3 -35 -7z"/>
<path d="M1790 710 c0 -28 3 -30 35 -30 32 0 35 2 35 30 0 28 -3 30 -35 30
-32 0 -35 -2 -35 -30z"/>
<path d="M2870 710 c0 -28 3 -30 35 -30 32 0 35 2 35 30 0 28 -3 30 -35 30
-32 0 -35 -2 -35 -30z"/>
<path d="M2877 3314 c-4 -4 -7 -112 -7 -241 l0 -233 240 0 240 0 -2 238 -3
237 -231 3 c-127 1 -233 -1 -237 -4z m403 -234 l0 -170 -170 0 -170 0 0 170 0
170 170 0 170 0 0 -170z"/>
<path d="M3010 3080 l0 -100 100 0 100 0 0 100 0 100 -100 0 -100 0 0 -100z"/>
<path d="M840 3145 c0 -33 2 -35 35 -35 32 0 35 -3 35 -28 0 -37 4 -39 40 -34
25 4 30 9 30 33 0 26 -3 29 -35 29 -33 0 -35 2 -35 35 0 33 -2 35 -35 35 -33
0 -35 -2 -35 -35z"/>
<path d="M3280 2640 l0 -70 -35 0 c-33 0 -35 -2 -35 -35 0 -33 2 -35 35 -35
32 0 35 -2 35 -30 0 -28 3 -30 35 -30 32 0 35 2 35 30 0 28 -3 30 -35 30 -33
0 -35 2 -35 35 0 33 2 35 35 35 l35 0 0 70 0 70 -35 0 -35 0 0 -70z"/>
<path d="M570 1350 l0 -70 -35 0 c-32 0 -35 -2 -35 -30 0 -27 -3 -30 -30 -30
-28 0 -30 -3 -30 -35 0 -32 2 -35 30 -35 28 0 30 -3 30 -35 l0 -35 -65 0 -65
0 0 -35 0 -35 65 0 65 0 0 35 c0 33 2 35 35 35 l35 0 0 -65 0 -65 -100 0 -100
0 0 -35 c0 -33 -2 -35 -35 -35 -33 0 -35 -2 -35 -35 0 -33 2 -35 35 -35 33 0
35 2 35 35 l0 35 64 0 65 0 3 -32 3 -33 68 -3 67 -3 0 136 0 135 65 0 65 0 0
35 0 35 -66 0 -65 0 3 33 c3 32 3 32 66 35 61 3 62 3 62 32 0 27 3 30 34 30
32 0 35 3 38 33 3 28 7 32 36 35 29 3 32 6 32 38 l0 34 -100 0 -100 0 0 -35
c0 -32 2 -35 31 -35 28 0 30 -2 27 -32 l-3 -33 -60 0 -60 0 -3 68 -3 67 -34 0
-35 0 0 -70z m0 -165 c0 -33 2 -35 35 -35 33 0 35 -2 35 -35 0 -33 -2 -35 -35
-35 -33 0 -35 2 -35 35 0 33 -2 35 -35 35 -32 0 -35 3 -35 28 0 36 6 42 42 42
25 0 28 -3 28 -35z"/>
<path d="M910 1185 c0 -33 -2 -35 -35 -35 -33 0 -35 -2 -35 -35 0 -33 2 -35
35 -35 l35 0 0 -65 0 -65 35 0 c32 0 35 2 35 30 0 23 5 30 19 30 37 0 51 12
51 41 l0 29 -70 0 -70 0 0 35 0 35 100 0 99 0 3 -67 3 -68 33 -1 32 -1 0 68 0
69 -35 0 c-33 0 -35 2 -35 35 l0 35 -100 0 -100 0 0 -35z"/>
<path d="M743 1012 c-29 -3 -33 -7 -33 -33 l0 -29 65 0 65 0 0 33 c0 29 -3 32
-33 32 -17 0 -47 -1 -64 -3z"/>
<path d="M710 845 c0 -32 2 -35 30 -35 28 0 30 3 30 35 0 32 -2 35 -30 35 -28
0 -30 -3 -30 -35z"/>
<path d="M300 505 l0 -235 235 0 235 0 0 235 0 235 -235 0 -235 0 0 -235z
m410 5 l0 -170 -170 0 -170 0 0 170 0 170 170 0 170 0 0 -170z"/>
<path d="M440 505 l0 -105 100 0 100 0 0 105 0 105 -100 0 -100 0 0 -105z"/>
<path d="M3210 575 l0 -35 70 0 70 0 0 35 0 35 -70 0 -70 0 0 -35z"/>
<path d="M3210 335 l0 -65 70 0 70 0 0 35 c0 33 -2 35 -35 35 -32 0 -35 2 -35
30 0 28 -3 30 -35 30 l-35 0 0 -65z"/>
</g>
</svg>
